<?xml version="1.0" standalone="no"?>
<!DOCTYPE svg PUBLIC "-//W3C//DTD SVG 20010904//EN"
 "http://www.w3.org/TR/2001/REC-SVG-20010904/DTD/svg10.dtd">
<svg version="1.0" xmlns="http://www.w3.org/2000/svg"
 width="920.000000pt" height="512.000000pt" viewBox="0 0 920.000000 512.000000"
 preserveAspectRatio="xMidYMid meet">

<g transform="translate(0.000000,512.000000) scale(0.100000,-0.100000)"
fill="#000000" stroke="none">
<path d="M4435 5106 c-38 -17 -91 -72 -104 -109 -6 -16 -11 -97 -11 -182 l0
-154 -37 -3 c-44 -4 -71 -40 -77 -107 l-3 -43 -109 -28 c-212 -55 -447 -154
-584 -246 -44 -30 -45 -30 -86 6 -48 41 -98 49 -130 19 l-24 -23 -108 107
c-115 113 -138 127 -207 127 -67 0 -91 -14 -188 -108 -110 -108 -141 -158
-141 -227 0 -75 20 -103 187 -273 l48 -48 -22 -28 c-27 -34 -21 -83 16 -131
l25 -34 -41 -68 c-86 -140 -170 -338 -214 -507 l-23 -90 -45 -13 c-53 -15 -64
-27 -69 -73 l-3 -35 -161 -5 c-153 -5 -162 -6 -201 -32 -69 -46 -83 -89 -83
-259 0 -162 12 -203 69 -252 46 -38 90 -47 244 -47 l137 0 0 -33 c0 -42 25
-66 75 -74 42 -7 37 2 91 -168 45 -146 100 -269 175 -397 55 -94 57 -97 38
-114 -19 -17 -59 -92 -59 -111 0 -6 12 -25 26 -42 l25 -30 -97 -108 c-105
-118 -124 -150 -124 -216 0 -63 32 -112 138 -211 100 -94 138 -116 203 -116
62 0 101 24 176 108 37 42 82 91 99 110 l31 34 31 -22 c37 -27 72 -22 121 19
l35 28 50 -32 c176 -112 448 -218 682 -264 l89 -17 6 -35 c10 -64 41 -99 88
-99 20 0 21 -5 21 -147 0 -169 11 -205 73 -260 47 -41 73 -45 244 -41 132 3
142 5 180 30 66 44 77 79 81 260 l4 158 28 0 c38 0 77 47 85 104 4 25 4 49 1
55 -4 6 12 15 36 21 193 50 456 167 612 273 l58 39 38 -21 c49 -27 81 -27 108
2 l21 23 113 -108 c113 -109 144 -128 213 -128 17 0 47 8 67 18 42 22 205 188
230 235 22 41 23 128 2 170 -9 18 -61 78 -116 133 l-100 102 22 30 c26 35 22
75 -12 118 l-21 26 55 107 c74 140 141 320 170 455 23 106 24 108 60 127 41
21 58 45 58 83 l0 25 158 3 c153 3 160 4 199 30 70 46 83 89 83 263 0 174 -13
217 -83 263 -39 26 -46 27 -199 30 l-158 4 0 28 c0 33 -49 80 -83 80 -12 0
-27 4 -33 8 -5 4 -30 63 -53 132 -42 121 -121 292 -173 375 l-24 40 23 34 c29
43 29 78 1 108 l-22 23 116 118 c126 127 137 148 124 238 -7 55 -13 63 -120
180 -94 101 -131 124 -203 124 -65 0 -94 -18 -208 -127 -53 -51 -100 -93 -104
-93 -4 0 -16 9 -26 20 -24 27 -59 25 -111 -5 l-44 -26 -97 59 c-180 107 -428
207 -599 243 l-60 12 -11 60 c-14 71 -35 97 -79 97 l-32 0 -3 163 c-4 182 -11
203 -82 261 l-39 31 -156 3 c-117 1 -165 -1 -187 -12z m190 -192 c55 -36 72
-180 29 -253 -38 -64 -109 -65 -151 -2 -19 28 -23 47 -23 108 0 77 8 102 43
141 24 26 67 29 102 6z m-187 -421 c-15 -2 -42 -2 -60 0 -18 2 -6 4 27 4 33 0
48 -2 33 -4z m189 1 c-3 -3 -12 -4 -19 -1 -8 3 -5 6 6 6 11 1 17 -2 13 -5z
m-352 -15 c-33 -5 -95 -16 -137 -25 -62 -13 -75 -20 -71 -33 4 -12 3 -13 -5
-3 -14 20 -104 -6 -108 -31 -1 -9 2 -15 7 -11 5 3 7 10 4 15 -4 5 1 9 10 9 10
0 13 -5 9 -12 -4 -7 -3 -8 5 -4 6 4 9 12 6 17 -4 5 1 9 10 9 9 0 14 -4 10 -9
-3 -5 -1 -13 5 -16 6 -4 10 -3 9 2 -3 18 2 33 11 33 5 0 7 -8 4 -17 -4 -11 -2
-14 3 -8 12 16 39 11 35 -5 -3 -10 3 -9 17 4 19 18 26 15 22 -8 -1 -5 4 -4 12
2 8 7 18 8 22 4 5 -4 5 -2 1 5 -3 6 -2 15 4 18 8 5 7 12 -2 23 -10 14 -10 15
2 5 10 -10 17 -10 29 -1 13 10 14 10 4 -1 -6 -7 -9 -21 -6 -30 4 -14 3 -14 -6
-1 -8 12 -10 11 -8 -7 1 -25 14 -20 28 11 9 19 9 18 6 -6 -2 -15 0 -25 4 -22
5 3 9 15 10 27 0 21 1 21 8 2 5 -12 4 -26 -2 -35 -7 -9 -4 -8 8 2 18 17 20 17
44 -5 14 -12 20 -15 13 -5 -8 9 -9 19 -4 22 6 3 13 -1 16 -10 6 -17 26 -10 26
9 0 8 -3 8 -9 -1 -7 -11 -9 -11 -14 2 -4 9 -14 13 -27 11 -17 -3 -19 -1 -10
16 12 22 22 26 14 5 -6 -15 12 -16 34 -2 8 5 11 3 10 -5 -2 -7 6 -13 17 -13
12 0 19 5 17 14 -2 8 0 11 4 7 5 -4 9 -20 11 -35 2 -23 1 -24 -7 -7 -6 15 -9
16 -9 4 -1 -9 9 -24 21 -35 13 -10 18 -12 12 -4 -7 9 -8 23 -3 35 7 20 8 20 8
-1 1 -11 10 -29 22 -40 11 -10 19 -14 17 -9 -2 6 2 11 7 13 6 1 10 -2 10 -7 0
-5 4 -13 8 -18 5 -4 8 -3 7 2 -5 24 1 25 23 3 12 -13 19 -20 15 -15 -3 5 -4
17 -1 26 4 12 3 13 -5 3 -7 -11 -10 -11 -16 3 -3 9 -10 13 -16 10 -6 -3 -13 1
-16 10 -6 14 -9 14 -16 3 -8 -10 -9 -10 -5 2 2 8 8 15 13 15 5 0 16 4 24 9 12
7 13 6 3 -5 -22 -23 -14 -33 9 -13 16 13 19 14 10 2 -9 -11 -10 -18 -2 -23 5
-3 10 0 11 7 0 7 7 -1 14 -18 8 -17 22 -37 31 -45 10 -8 15 -9 11 -2 -4 6 -3
14 3 18 10 6 15 -8 10 -30 -1 -5 4 -4 11 2 10 10 17 9 35 -8 21 -19 22 -20 19
-3 -1 11 -8 18 -15 16 -7 -1 -8 2 -3 10 4 7 8 16 8 20 0 3 4 10 8 15 5 4 8 3
7 -2 -1 -6 -1 -12 0 -15 2 -7 8 -32 12 -57 2 -12 8 -26 12 -30 4 -5 6 -3 4 3
-1 7 2 12 7 13 6 1 10 -3 10 -8 0 -5 4 -13 9 -18 5 -4 6 -3 2 4 -3 6 -2 14 3
17 5 3 11 -3 14 -14 3 -11 11 -19 19 -18 7 2 12 -3 10 -11 -3 -12 -1 -12 14 0
16 12 17 12 11 -3 -3 -10 -2 -20 2 -22 10 -6 8 22 -3 47 -5 10 -6 21 -2 24 3
4 6 -1 6 -10 0 -10 5 -16 12 -15 6 2 17 -8 25 -22 11 -21 17 -21 15 1 -1 3 5
6 12 6 7 0 13 -7 12 -16 -1 -9 4 -17 9 -17 6 -1 9 1 8 5 -1 4 5 8 12 8 10 0
12 -4 5 -12 -12 -15 1 -33 23 -29 11 1 16 0 13 -3 -3 -4 -1 -12 5 -20 9 -10
15 -11 28 -1 13 10 14 10 5 -1 -13 -14 -7 -51 8 -51 5 0 7 4 4 8 -3 5 1 9 9 9
10 0 12 -4 5 -12 -14 -17 0 -27 19 -12 14 10 14 10 3 -5 -11 -14 -10 -18 6
-27 11 -6 22 -8 24 -5 3 2 11 -4 19 -13 13 -17 13 -17 -5 -3 -18 14 -19 13
-13 -3 4 -10 7 -24 7 -30 0 -8 3 -8 8 1 5 7 8 -10 7 -38 -1 -28 2 -53 8 -57 6
-3 7 -1 3 5 -3 6 -1 14 5 18 8 5 10 -1 7 -19 -3 -15 -1 -24 3 -21 12 7 11 41
-1 49 -5 3 -6 13 -3 21 5 15 7 15 15 0 5 -9 14 -14 19 -10 5 3 8 0 7 -8 -2 -7
2 -12 8 -11 6 1 11 -4 11 -12 0 -8 -4 -12 -9 -9 -4 3 -8 -2 -8 -10 0 -9 7 -13
20 -11 11 2 19 -1 17 -8 -1 -7 4 -11 11 -9 8 1 11 -2 8 -7 -4 -5 -2 -13 4 -16
8 -5 8 -11 0 -20 -7 -8 -7 -15 -1 -19 5 -3 12 0 15 6 3 7 3 0 0 -17 -4 -24 -3
-27 6 -15 10 13 11 13 9 0 -3 -35 2 -61 11 -55 6 4 8 10 6 14 -3 4 1 8 9 8 10
0 12 -4 5 -12 -5 -6 -5 -17 0 -25 5 -8 7 -17 4 -21 -2 -4 0 -10 5 -14 6 -3 7
-13 4 -22 -5 -12 -3 -14 8 -8 8 4 11 5 7 0 -11 -12 11 -47 25 -39 9 5 8 3 0
-7 -19 -20 -16 -33 5 -18 16 13 16 13 0 -7 -10 -11 -18 -27 -18 -34 0 -9 5 -7
15 6 15 18 15 18 8 0 -5 -15 -3 -17 8 -11 8 4 11 5 7 0 -4 -4 -2 -15 5 -23 10
-13 9 -14 -2 -7 -11 6 -13 4 -8 -9 5 -11 3 -15 -4 -10 -7 4 -10 1 -7 -7 3 -8
11 -13 17 -12 6 2 10 -3 8 -10 -1 -6 5 -11 13 -9 12 3 12 1 3 -9 -10 -9 -10
-16 -1 -26 9 -11 8 -13 -2 -11 -7 2 -15 -3 -18 -11 -3 -9 0 -11 9 -6 11 6 11
5 3 -4 -7 -7 -9 -22 -6 -33 4 -15 7 -17 14 -6 8 10 9 10 5 -2 -2 -8 -1 -22 4
-31 6 -11 4 -21 -6 -29 -7 -6 -11 -19 -8 -27 4 -9 7 -28 8 -42 1 -14 6 -25 12
-24 5 1 10 -4 10 -12 0 -8 -5 -13 -11 -12 -6 1 -11 -12 -10 -30 0 -18 -3 -30
-8 -27 -4 3 -8 -2 -8 -11 0 -10 5 -14 13 -9 9 5 9 4 0 -6 -9 -10 -8 -18 4 -37
11 -17 12 -23 3 -21 -12 3 -18 -16 -23 -69 -1 -11 -5 -19 -9 -16 -10 5 -10
-11 -1 -20 3 -4 13 -1 22 5 14 11 14 10 0 -7 -9 -11 -15 -28 -14 -38 2 -9 -1
-15 -5 -12 -5 3 -7 14 -5 25 2 11 -1 22 -6 26 -7 4 -10 -6 -8 -28 2 -18 0 -39
-5 -46 -4 -7 -5 -20 -2 -28 3 -8 2 -13 -3 -10 -5 3 -11 -1 -14 -8 -7 -17 16
-39 28 -28 5 4 5 1 1 -6 -6 -9 -11 -10 -20 -3 -13 11 -26 5 -26 -11 0 -5 4 -7
9 -3 5 3 13 1 16 -5 4 -6 3 -9 -2 -8 -4 2 -9 -1 -11 -7 -2 -5 -9 -17 -16 -25
-7 -8 -12 -27 -11 -42 1 -15 -2 -25 -6 -22 -4 2 -6 13 -4 24 2 11 0 22 -4 25
-5 2 -12 -14 -16 -38 -7 -40 -7 -41 -17 -17 -6 14 -11 35 -12 47 -1 12 -4 25
-8 28 -3 4 -4 -10 -2 -30 3 -33 2 -36 -14 -23 -15 12 -16 11 -3 -4 7 -10 18
-15 25 -11 6 3 8 3 4 -2 -4 -4 -3 -16 3 -27 8 -15 13 -17 25 -8 7 7 11 17 7
23 -3 6 -1 7 6 3 6 -4 8 -13 4 -19 -14 -22 -14 -49 -1 -41 7 4 10 4 6 -1 -4
-4 9 -29 30 -54 47 -58 67 -89 27 -42 -156 183 -494 539 -544 571 -142 95
-327 96 -463 2 -98 -68 -160 -166 -181 -288 -28 -160 49 -329 193 -427 25 -17
77 -56 115 -87 86 -70 276 -199 356 -241 33 -18 58 -34 56 -36 -3 -2 -37 15
-76 37 -39 22 -77 38 -83 34 -7 -5 -8 -3 -3 6 5 8 3 11 -6 8 -8 -3 -13 -11
-11 -17 4 -18 -16 -3 -29 21 -9 16 -8 19 3 12 10 -6 10 -4 -1 9 -8 10 -16 15
-19 12 -3 -3 -12 1 -20 8 -13 10 -14 9 -7 -3 5 -8 9 -24 7 -35 l-2 -20 9 20
c5 11 10 17 10 13 1 -5 0 -10 -1 -12 -2 -2 6 -14 17 -27 l20 -24 -22 19 c-23
19 -33 10 -13 -10 7 -7 6 -11 -5 -11 -8 0 -13 2 -10 5 2 2 -2 17 -10 32 -8 15
-12 30 -9 33 3 3 1 8 -5 11 -6 4 -8 -4 -5 -20 4 -24 3 -26 -10 -14 -9 7 -13
17 -9 24 3 6 2 7 -3 3 -5 -5 -9 -13 -9 -18 0 -5 -3 -8 -6 -6 -3 1 -13 -4 -21
-11 -12 -10 -17 -10 -27 1 -6 8 -7 18 -3 22 4 5 1 5 -6 1 -8 -5 -10 -12 -4
-19 5 -7 8 -25 6 -42 -3 -25 -2 -27 6 -10 8 17 9 17 7 -7 -2 -15 -7 -31 -12
-35 -4 -4 -5 -3 -1 4 3 6 2 14 -4 18 -5 3 -10 17 -10 30 0 13 -4 27 -10 30 -5
3 -8 0 -5 -7 8 -25 13 -88 6 -84 -4 3 -8 19 -9 37 -3 44 -12 50 -13 11 -2 -45
-3 -49 -13 -59 -5 -4 -6 -3 -2 4 3 6 2 14 -3 17 -4 3 -11 20 -15 38 -6 27 -9
30 -16 17 -5 -9 -11 -31 -12 -48 -1 -18 -9 -38 -18 -44 -12 -10 -13 -10 -4 3
14 19 -13 72 -39 76 -18 2 -38 -24 -36 -48 0 -7 4 -4 9 7 7 15 9 16 9 4 1 -9
-6 -22 -14 -29 -8 -7 -12 -17 -8 -23 3 -6 1 -7 -6 -3 -6 4 -8 12 -5 18 9 14
11 69 4 73 -3 2 -7 -10 -8 -28 -2 -17 -7 -36 -12 -42 -5 -7 -6 -16 -2 -20 4
-5 1 -5 -6 -1 -7 4 -10 11 -7 16 3 5 1 11 -5 15 -9 6 -14 -8 -11 -28 1 -5 -3
-6 -8 -2 -6 3 -7 13 -4 23 6 15 5 15 -10 3 -9 -7 -14 -18 -10 -24 3 -6 1 -7
-6 -3 -6 4 -9 11 -6 16 3 5 1 11 -5 15 -9 6 -15 -9 -10 -30 1 -5 -8 -1 -19 9
-12 11 -21 24 -21 29 0 6 7 2 15 -9 8 -10 14 -14 14 -9 0 6 -6 19 -14 29 -8
10 -12 23 -8 29 3 6 1 7 -5 3 -6 -4 -9 -14 -6 -24 5 -16 4 -16 -7 0 -12 15
-14 15 -26 0 -12 -16 -13 -15 -10 3 1 11 7 27 12 35 8 13 6 13 -8 2 -9 -8 -16
-17 -15 -20 2 -20 -3 -32 -12 -27 -5 3 -7 13 -4 23 5 15 4 14 -6 -1 -11 -17
-13 -17 -30 -2 -22 19 -33 7 -26 -29 3 -14 0 -29 -6 -32 -6 -4 -8 -2 -5 3 4 6
-1 17 -10 24 -15 12 -16 12 -10 -3 3 -10 2 -20 -4 -23 -5 -4 -9 -3 -8 2 3 20
-2 34 -11 28 -6 -4 -7 -12 -4 -18 4 -7 3 -8 -1 -4 -5 4 -10 13 -11 20 -1 7 -5
20 -9 29 -4 10 -4 18 -1 18 4 0 11 -10 16 -22 8 -22 9 -22 7 4 -1 15 -6 26
-12 25 -5 -1 -9 5 -7 13 2 8 0 11 -4 7 -4 -4 -9 -13 -10 -20 -1 -7 -5 -21 -9
-32 -6 -16 -5 -17 4 -5 9 12 11 11 8 -7 -2 -12 -7 -26 -11 -30 -4 -5 -7 -3 -6
2 5 22 -1 27 -17 14 -15 -11 -16 -11 -5 1 20 24 13 34 -10 14 -12 -10 -18 -14
-15 -7 4 6 3 14 -3 18 -5 3 -10 14 -9 23 0 14 2 13 10 -3 l9 -20 -2 20 c-2 11
2 27 7 35 7 13 6 13 -7 2 -11 -9 -18 -10 -23 -2 -3 6 -10 8 -15 5 -5 -3 -12
-1 -15 5 -9 15 -35 -7 -34 -29 0 -10 3 -8 10 7 11 30 29 19 28 -16 l-1 -27 -8
25 c-7 20 -14 13 -12 -11 1 -3 -5 -6 -12 -6 -16 0 -19 46 -4 66 11 14 11 14
-3 3 -13 -10 -18 -10 -28 1 -6 8 -7 18 -3 22 4 5 2 5 -5 1 -6 -3 -10 -20 -8
-36 2 -16 0 -32 -5 -35 -6 -4 -7 2 -3 12 6 16 5 16 -10 4 -9 -7 -14 -18 -10
-24 3 -6 1 -7 -6 -3 -6 4 -9 11 -6 16 3 5 1 11 -5 15 -5 3 -10 14 -9 23 0 14
2 13 9 -3 6 -13 9 -15 9 -5 0 8 -6 24 -14 34 -8 10 -12 22 -10 26 2 4 -3 7
-11 7 -10 0 -11 -4 -4 -11 17 -17 11 -27 -9 -14 -11 7 -19 17 -18 22 1 6 -5
10 -13 11 -8 1 -14 7 -12 15 2 10 0 11 -11 2 -19 -16 -30 -3 -14 17 11 14 10
15 -7 1 -23 -18 -28 -17 -37 7 -7 17 -8 17 -8 0 -1 -10 -5 -16 -11 -12 -5 3
-7 13 -4 23 5 14 4 14 -4 2 -8 -10 -8 -18 0 -28 9 -10 7 -17 -6 -30 -10 -9
-16 -12 -15 -7 4 16 -23 65 -33 59 -5 -3 -3 -13 4 -22 12 -15 11 -16 -5 -3 -9
8 -15 16 -13 19 3 2 1 13 -5 24 -6 11 -8 22 -5 25 3 3 10 -5 15 -18 9 -23 11
-20 11 19 0 4 -6 7 -12 7 -7 1 -12 6 -11 12 1 6 -8 10 -23 8 -18 -2 -24 1 -20
12 4 8 1 11 -5 8 -6 -4 -8 -13 -5 -20 3 -8 -2 -19 -10 -26 -8 -7 -14 -8 -12
-3 1 5 -4 19 -11 32 -10 20 -15 21 -29 11 -14 -11 -15 -11 -4 1 17 20 15 35
-4 20 -8 -8 -14 -9 -13 -4 4 15 -12 44 -21 39 -5 -3 -6 5 -2 17 5 21 6 21 15
-6 7 -21 12 -25 18 -15 5 8 9 19 9 24 0 6 -5 3 -10 -5 -9 -13 -10 -13 -10 1 0
8 6 21 13 29 9 11 8 11 -7 0 -18 -14 -19 -13 -13 3 10 26 -1 20 -17 -10 -12
-21 -15 -23 -13 -8 1 11 7 26 11 34 6 9 5 12 -2 7 -5 -3 -12 -1 -14 6 -3 7 -7
5 -11 -6 -4 -11 -3 -15 4 -10 8 5 8 1 0 -13 -6 -11 -7 -24 -3 -28 4 -5 2 -5
-5 -1 -7 4 -9 14 -6 23 4 11 3 14 -6 9 -6 -4 -11 -4 -10 1 4 23 -2 43 -11 38
-6 -4 -7 -11 -4 -17 4 -7 2 -8 -5 -4 -6 4 -9 11 -6 16 3 5 0 12 -6 15 -5 4 -8
13 -5 21 5 12 -4 18 -25 16 -3 -1 -6 4 -6 11 -1 7 -2 31 -4 55 -1 27 -5 38
-11 30 -6 -10 -8 -9 -8 3 0 8 5 20 10 25 7 7 6 11 -3 11 -15 0 -19 -22 -9 -47
8 -22 9 -70 1 -64 -4 2 -5 16 -3 31 4 22 3 24 -9 14 -13 -10 -14 -6 -10 26 2
21 6 45 9 53 3 8 2 11 -2 7 -4 -4 -13 -2 -21 4 -11 10 -11 15 -1 27 8 10 9 13
2 9 -16 -9 -25 18 -12 31 7 7 6 10 -5 8 -9 -1 -20 -6 -24 -11 -4 -4 -3 -5 4
-2 7 5 10 -1 9 -18 -2 -16 1 -22 8 -18 6 3 8 3 4 -2 -4 -4 -3 -14 3 -21 7 -8
7 -14 -1 -19 -6 -4 -9 -1 -8 7 2 7 -4 12 -12 10 -8 -2 -12 0 -7 4 4 4 -1 17
-10 28 -17 20 -17 20 0 7 12 -9 17 -10 17 -2 0 6 -7 14 -16 18 -10 4 -12 8 -5
13 6 3 13 16 16 29 2 12 0 19 -6 16 -9 -6 -13 7 -10 35 2 13 0 13 -8 1 -6 -9
-6 -22 -1 -32 5 -9 6 -20 2 -24 -4 -5 0 -5 8 0 8 5 12 4 7 0 -4 -5 -15 -10
-24 -11 -11 -2 -12 1 -5 8 13 13 4 40 -11 31 -5 -3 -7 -2 -4 4 3 5 0 22 -8 37
-8 14 -9 24 -3 20 6 -4 9 -1 6 7 -3 8 -11 13 -17 11 -7 -1 -10 2 -7 7 4 5 3
12 -2 15 -5 3 -7 21 -6 41 3 29 1 35 -10 26 -9 -8 -13 -7 -13 4 0 8 4 12 9 9
11 -7 10 3 -3 28 -8 15 -8 19 0 14 6 -4 11 -2 11 4 0 6 6 8 13 4 6 -4 9 -4 5
1 -4 4 -3 14 3 21 7 8 6 14 -2 20 -7 4 -9 3 -5 -4 3 -6 1 -14 -5 -18 -8 -5
-10 1 -7 19 3 16 1 24 -5 20 -5 -3 -7 0 -5 8 3 8 12 13 19 11 11 -3 11 -1 2 9
-10 10 -10 16 0 28 11 14 10 14 -5 2 -19 -14 -24 -3 -8 17 5 7 2 5 -7 -3 -13
-11 -14 -18 -5 -27 7 -7 8 -16 2 -23 -6 -7 -6 -24 -1 -42 6 -21 5 -30 -3 -30
-7 0 -11 18 -10 46 1 25 -3 54 -8 65 -7 12 -7 16 0 12 11 -6 27 22 22 39 -8
28 -5 152 4 164 9 12 8 13 -3 7 -9 -6 -12 -5 -9 5 3 8 10 13 16 12 5 -1 9 5 7
15 -1 9 3 24 9 32 9 13 8 13 -5 3 -13 -11 -15 -7 -16 24 -1 20 2 31 6 25 4 -7
11 -5 19 8 7 12 8 21 2 25 -6 3 -10 11 -10 16 0 6 4 8 9 4 5 -3 12 -1 15 4 4
5 -2 8 -11 7 -11 -2 -25 -21 -36 -51 -16 -42 -16 -50 -3 -70 8 -13 12 -26 9
-29 -4 -4 -12 6 -19 21 -10 24 -13 25 -13 8 -1 -12 4 -26 10 -32 8 -8 7 -13
-2 -18 -7 -5 -10 -4 -5 3 3 6 2 13 -3 16 -5 4 -21 -40 -34 -96 -14 -57 -26
-94 -26 -82 -1 11 14 77 33 145 55 199 146 389 269 555 73 100 267 288 377
367 111 78 315 182 450 228 111 37 298 78 355 77 33 0 29 -2 -20 -9z m-22 -65
c-3 -8 -7 -14 -10 -14 -3 0 -3 6 0 14 3 7 0 20 -6 27 -10 11 -9 11 5 0 9 -7
14 -19 11 -27z m-107 14 c3 -4 3 -12 -2 -19 -5 -9 -10 -8 -19 5 -11 15 -13 15
-19 1 -6 -18 -26 -11 -26 8 0 8 3 8 9 -1 7 -11 9 -11 14 1 6 15 30 17 43 5z
m283 -35 c-6 -7 -9 -20 -5 -28 3 -9 2 -13 -4 -10 -14 9 -8 52 7 52 9 0 10 -4
2 -14z m110 -20 c-1 -5 -1 -19 1 -33 1 -23 2 -24 11 -5 7 17 8 17 6 2 -1 -10
-6 -19 -11 -20 -11 -2 -27 49 -18 57 8 8 12 7 11 -1z m50 -68 c0 -5 -4 -3 -9
5 -5 8 -9 22 -9 30 0 16 17 -16 18 -35z m19 4 c-3 -8 -7 -3 -11 10 -4 17 -3
21 5 13 5 -5 8 -16 6 -23z m63 -21 c-3 -21 -6 -26 -9 -15 -3 17 3 47 11 47 2
0 1 -15 -2 -32z m42 -15 c-4 -10 -2 -14 4 -10 12 7 26 -7 36 -35 9 -26 -2 -22
-13 5 -8 20 -9 21 -10 2 l-1 -20 -8 20 c-5 11 -14 20 -22 20 -7 0 -15 9 -16
20 -3 19 -3 19 5 1 7 -16 9 -17 14 -4 4 9 1 22 -5 29 -10 11 -9 11 5 0 10 -7
14 -19 11 -28z m38 0 c13 -16 12 -17 -3 -4 -17 13 -22 21 -14 21 2 0 10 -8 17
-17z m322 -323 c-3 -12 -8 -19 -11 -16 -5 6 5 36 12 36 2 0 2 -9 -1 -20z
m-2148 -539 c3 -5 1 -12 -5 -16 -5 -3 -10 1 -10 9 0 18 6 21 15 7z m-39 -230
c1 -42 3 -82 5 -90 2 -7 -4 -15 -14 -16 -11 -2 -16 -1 -13 2 3 4 0 13 -7 22
-11 14 -10 14 6 2 9 -7 17 -10 17 -6 0 5 -8 18 -17 29 -17 20 -17 20 0 7 9 -7
17 -10 17 -6 0 5 -8 18 -17 29 -17 20 -17 20 0 7 10 -8 17 -9 17 -3 0 6 -5 14
-10 17 -8 5 -8 11 -1 19 7 9 7 17 -2 26 -9 10 -9 11 1 6 15 -9 16 6 2 20 -7 7
-7 11 3 11 9 0 13 -20 13 -76z m2480 64 c-1 -8 -5 -17 -8 -21 -5 -4 -4 16 1
34 3 9 9 -1 7 -13z m-2559 -192 c-3 -10 -5 -4 -5 12 0 17 2 24 5 18 2 -7 2
-21 0 -30z m2573 -9 c0 -8 -19 -13 -24 -6 -3 5 1 9 9 9 8 0 15 -2 15 -3z
m-2583 -71 c-3 -10 -5 -2 -5 17 0 19 2 27 5 18 2 -10 2 -26 0 -35z m1795 -108
c67 -44 97 -129 74 -209 -47 -162 -256 -184 -338 -36 -27 50 -22 154 10 195
25 32 77 70 107 78 38 11 109 -3 147 -28z m-1805 -57 c-2 -18 -4 -6 -4 27 0
33 2 48 4 33 2 -15 2 -42 0 -60z m2543 18 c0 -2 -8 -10 -17 -17 -16 -13 -17
-12 -4 4 13 16 21 21 21 13z m-2778 -96 c14 0 15 -12 11 -102 -3 -58 -11 -106
-17 -110 -17 -12 -94 -9 -138 4 -22 6 -52 27 -69 46 -25 29 -30 41 -25 66 4
17 17 42 30 55 29 29 108 52 156 46 19 -3 42 -5 52 -5z m495 -195 c-1 -13 -6
-27 -10 -30 -4 -3 -5 -2 -2 2 3 3 -1 13 -8 21 -9 13 -9 14 1 8 7 -4 12 -1 12
8 0 9 2 16 5 16 3 0 4 -11 2 -25z m328 -373 c1 -17 -1 -29 -4 -26 -6 5 -7 9
-10 35 0 5 -6 7 -11 4 -6 -4 -7 -11 -4 -17 4 -7 2 -8 -4 -4 -9 5 -8 12 1 26
17 28 30 20 32 -18z m107 -84 c-8 -8 -9 -4 -5 13 4 13 8 18 11 10 2 -7 -1 -18
-6 -23z m46 -19 c-2 -26 -4 -27 -19 -13 -21 19 -14 71 7 53 8 -6 13 -24 12
-40z m25 3 c-5 -14 -2 -13 11 3 10 11 15 15 11 8 -5 -12 32 -39 48 -35 4 1 3
-6 -2 -16 -7 -13 -6 -23 2 -32 10 -12 9 -12 -5 -1 -10 7 -14 19 -11 29 6 15 5
15 -11 3 -9 -8 -16 -10 -15 -5 3 19 -1 34 -12 34 -5 0 -8 -4 -5 -8 3 -5 -1 -9
-7 -9 -7 0 -14 13 -15 29 -1 17 2 27 7 23 6 -3 7 -13 4 -23z m1010 -50 c3 7 4
3 4 -9 -1 -18 -4 -20 -16 -10 -12 10 -14 9 -8 -5 3 -10 -1 -22 -11 -29 -14
-11 -15 -11 -5 0 12 14 7 41 -8 41 -4 0 -6 -6 -3 -14 3 -8 0 -17 -5 -21 -6 -3
-8 -12 -5 -18 4 -7 5 -10 1 -7 -3 3 -6 10 -7 15 0 6 -8 21 -17 34 -8 13 -10
21 -5 17 6 -3 13 -2 17 4 4 6 10 8 15 5 5 -3 12 0 16 6 5 9 11 7 20 -5 9 -13
13 -14 17 -4z m-855 -32 c-3 -36 -10 -31 -13 10 -2 16 1 27 6 24 5 -3 8 -18 7
-34z m86 -19 c1 -16 -2 -27 -6 -24 -5 2 -8 18 -8 35 0 39 13 29 14 -11z m588
-11 c3 -17 2 -33 -2 -35 -3 -2 -7 12 -8 31 -3 42 4 45 10 4z m-61 -13 c5 -19
2 -30 -9 -39 -15 -11 -15 -11 -6 2 6 9 8 26 3 40 l-7 25 -1 -26 c-1 -15 -9
-33 -18 -40 -16 -13 -17 -12 -4 3 8 10 11 28 7 42 -5 19 -2 24 11 22 9 -2 20
-15 24 -29z m-308 -1 c4 4 9 -1 13 -10 4 -10 2 -22 -4 -28 -8 -8 -9 -4 -5 13
5 23 5 23 -10 4 -8 -11 -13 -24 -10 -30 4 -5 2 -6 -2 -2 -5 4 -10 13 -11 20
-2 7 -6 23 -10 37 -7 24 -7 24 13 7 11 -9 23 -14 26 -11z m82 -28 c9 -18 10
-27 4 -21 -10 10 -16 10 -28 1 -13 -10 -14 -10 -3 2 23 26 13 42 -10 18 -13
-13 -20 -20 -16 -15 3 5 4 17 1 26 -4 12 -3 13 5 3 7 -11 10 -11 15 2 9 23 13
20 32 -16z"/>
<path d="M4337 4381 c-4 -17 -3 -21 5 -13 5 5 8 16 6 23 -3 8 -7 3 -11 -10z"/>
<path d="M4790 4196 c5 -13 6 -27 2 -31 -4 -4 0 -5 8 -3 8 2 14 -2 15 -9 0 -6
4 -15 9 -20 5 -4 6 -3 2 4 -3 6 -2 14 4 18 5 3 11 1 11 -4 1 -6 2 -15 3 -20 0
-5 5 -13 10 -18 5 -4 6 -3 2 4 -3 6 -2 14 4 18 5 3 10 -3 10 -14 0 -11 4 -22
9 -26 6 -3 6 7 1 26 -10 35 -20 49 -20 29 0 -9 -5 -7 -14 5 -8 11 -12 24 -8
30 3 5 -2 4 -11 -4 -15 -11 -18 -10 -27 13 -5 14 -12 26 -15 26 -2 0 0 -11 5
-24z"/>
<path d="M4892 4125 c3 -11 7 -27 9 -35 2 -8 -2 -14 -9 -12 -8 1 -11 -2 -7 -8
10 -17 35 8 29 28 -5 14 -4 14 6 -1 9 -14 9 -22 -2 -35 -12 -15 -11 -16 5 -3
17 13 18 13 15 -4 -2 -12 3 -20 12 -20 8 -1 14 -7 12 -14 -1 -7 2 -10 7 -7 5
3 14 -1 21 -9 7 -8 9 -15 5 -15 -4 0 -2 -6 4 -13 6 -8 7 -18 3 -23 -4 -4 1 -2
11 5 16 13 18 12 13 -12 -2 -15 -1 -29 3 -31 6 -4 7 26 2 71 -1 16 -60 69 -72
66 -5 -2 -11 8 -15 21 -3 13 -17 35 -31 48 -24 21 -26 22 -21 3z m128 -144 c0
-8 -3 -12 -6 -8 -3 3 -5 8 -4 12 1 4 -11 21 -27 38 l-28 32 33 -29 c17 -17 32
-36 32 -45z"/>
<path d="M5089 3918 c7 -10 10 -33 7 -57 -3 -29 0 -44 12 -53 13 -11 14 -11 7
2 -13 21 -18 57 -7 45 18 -19 31 -72 20 -83 -6 -6 -6 -12 1 -17 6 -3 10 -1 9
5 -2 7 5 14 15 15 10 2 17 -3 17 -11 0 -9 -4 -13 -8 -10 -5 3 -9 -1 -9 -9 0
-7 8 -12 19 -10 13 3 18 -2 18 -18 0 -18 -2 -19 -10 -7 -8 12 -9 9 -6 -10 2
-14 -2 -32 -8 -40 -9 -13 -9 -13 6 -2 10 8 17 17 16 20 -2 20 3 25 12 12 6
-10 4 -20 -6 -31 -11 -12 -12 -19 -4 -24 6 -3 9 -3 8 2 -2 4 1 10 7 13 13 7
13 -31 0 -50 -9 -13 -8 -13 9 0 18 14 19 13 13 -3 -4 -11 -3 -16 3 -12 6 3 10
-3 10 -14 0 -11 5 -23 10 -26 6 -4 9 -20 6 -36 -2 -16 0 -27 5 -23 12 7 11 -3
-1 -26 -6 -12 -6 -21 -1 -25 6 -3 8 -14 6 -25 -2 -11 -1 -19 3 -17 4 1 7 -2 7
-8 0 -5 -3 -9 -6 -8 -3 1 -6 -5 -6 -13 0 -11 4 -11 19 3 10 9 18 11 18 5 0 -6
-4 -13 -10 -17 -6 -4 -6 -15 0 -31 14 -35 13 -38 -7 -23 -16 12 -17 12 -7 -1
12 -17 12 -30 1 -47 -4 -6 -3 -15 3 -18 6 -4 9 -3 8 2 -2 4 1 9 7 11 8 2 12
-38 5 -53 -1 -3 -3 -8 -4 -12 -1 -5 -5 -13 -9 -20 -4 -6 -3 -14 1 -17 10 -6
10 -46 -1 -63 -4 -6 -3 -15 3 -18 8 -5 8 -11 0 -20 -8 -9 -8 -15 0 -20 5 -3
10 -11 10 -17 0 -6 -7 -5 -17 3 -15 12 -16 12 -8 -1 6 -8 10 -36 11 -62 0 -38
-2 -45 -13 -37 -7 6 -10 16 -6 22 3 6 1 7 -6 3 -9 -6 -9 -11 -1 -21 7 -9 8
-15 1 -19 -6 -4 -8 -13 -4 -21 3 -9 0 -22 -6 -29 -8 -9 -8 -16 -2 -20 6 -4 8
-13 5 -21 -4 -8 -10 -12 -15 -9 -5 3 -7 9 -5 13 3 4 -1 8 -9 8 -10 0 -9 -6 5
-25 11 -13 17 -29 13 -35 -4 -6 -10 -1 -14 11 -11 29 -15 28 -13 -5 2 -36 -14
-66 -29 -56 -7 4 -5 -1 3 -11 8 -10 14 -33 13 -50 l-2 -31 7 30 c4 17 12 29
17 28 18 -3 34 18 30 39 -3 12 -1 26 3 32 3 6 7 16 8 21 1 6 8 24 14 40 7 17
12 41 11 55 -1 14 7 48 19 74 11 27 18 51 15 54 -3 3 0 11 6 18 6 7 7 19 3 26
-12 19 -15 41 -7 58 3 8 7 22 7 30 1 8 5 20 9 27 4 6 3 14 -2 17 -5 4 -8 14
-6 24 1 9 -1 27 -6 39 -5 15 -3 25 7 34 13 10 13 15 0 35 -21 30 -29 81 -15
90 8 4 7 9 -2 15 -12 7 -12 9 0 9 10 0 8 7 -8 24 -19 20 -21 28 -12 45 12 21
11 22 -11 25 -8 1 -13 16 -14 36 0 19 -7 46 -14 60 -8 14 -16 30 -16 35 -1 6
-3 13 -4 18 -4 13 -7 27 -9 40 -1 8 -4 8 -10 -2 -8 -12 -11 -8 -17 15 -4 16
-16 44 -26 63 -13 23 -16 36 -9 41 11 6 -34 57 -47 53 -4 -2 -7 6 -7 17 0 11
-9 28 -20 37 -16 15 -17 15 -6 1z m59 -94 c4 2 7 -7 7 -19 0 -29 -12 -19 -18
15 -2 14 -2 19 0 12 3 -7 8 -10 11 -8z m77 -153 c-3 -5 -1 -12 5 -16 6 -4 8
-11 4 -16 -3 -5 -1 -16 6 -23 15 -19 32 -78 19 -71 -5 4 -9 14 -9 23 0 10 -7
28 -16 40 -8 12 -13 26 -9 31 3 5 1 12 -5 16 -10 6 -5 25 6 25 3 0 3 -4 -1 -9z
m60 -199 c-3 -8 0 -21 7 -29 6 -8 12 -25 13 -38 1 -22 -1 -23 -17 -8 -10 9
-15 19 -13 24 3 4 1 10 -5 14 -7 4 -7 13 1 26 8 15 7 25 -3 37 -12 15 -11 16
5 3 10 -8 15 -21 12 -29z m22 -118 c-3 -4 1 -23 9 -42 18 -43 12 -71 -11 -52
-11 9 -12 16 -5 25 7 8 7 21 1 38 -9 23 -6 37 7 37 3 0 3 -3 -1 -6z m18 -187
c1 -34 -2 -67 -7 -73 -7 -9 -6 -43 2 -64 2 -3 1 -9 0 -15 -1 -5 -4 -20 -6 -32
-2 -12 -8 -32 -13 -45 -8 -20 -9 -18 -7 13 2 20 6 41 10 48 4 7 3 18 -4 26 -8
9 -8 15 0 20 8 5 8 10 0 20 -6 7 -7 16 -2 19 10 6 10 46 -1 63 -4 6 -3 14 3
18 6 4 8 10 5 15 -3 5 -1 11 4 14 5 3 7 16 4 29 -3 12 -2 19 2 14 5 -4 9 -35
10 -70z m-46 -341 c-4 -4 -12 -5 -19 -1 -8 5 -8 10 1 21 6 7 9 20 6 28 -3 8
-3 17 1 21 9 9 20 -58 11 -69z m-18 -43 c-12 -20 -14 -14 -5 12 4 9 9 14 11
11 3 -2 0 -13 -6 -23z m-10 -37 c-6 -8 -11 -18 -10 -22 1 -5 1 -18 -1 -29 l-1
-20 -9 20 c-8 18 -9 18 -9 2 -1 -10 -5 -15 -11 -12 -6 4 -4 15 5 29 8 12 12
26 8 31 -5 4 -3 5 4 1 6 -3 14 -2 18 4 3 5 9 10 12 10 3 0 0 -6 -6 -14z"/>
<path d="M5283 3425 c0 -8 4 -12 9 -9 5 3 6 10 3 15 -9 13 -12 11 -12 -6z"/>
<path d="M5311 3274 c0 -11 3 -14 6 -6 3 7 2 16 -1 19 -3 4 -6 -2 -5 -13z"/>
<path d="M5311 3154 c0 -11 3 -14 6 -6 3 7 2 16 -1 19 -3 4 -6 -2 -5 -13z"/>
<path d="M5216 3561 c-3 -5 1 -14 9 -21 8 -7 12 -17 8 -23 -4 -6 -1 -7 6 -3 9
6 9 12 -3 25 -9 10 -13 21 -9 24 3 4 4 7 0 7 -3 0 -8 -4 -11 -9z"/>
<path d="M2939 3473 c-13 -16 -12 -17 4 -4 16 13 21 21 13 21 -2 0 -10 -8 -17
-17z"/>
<path d="M5276 3203 c-6 -14 -5 -15 5 -6 7 7 10 15 7 18 -3 3 -9 -2 -12 -12z"/>
<path d="M5263 2965 c0 -8 4 -12 9 -9 5 3 6 10 3 15 -9 13 -12 11 -12 -6z"/>
<path d="M2916 2893 c4 -10 8 -35 9 -55 1 -21 9 -46 19 -57 9 -10 16 -22 15
-27 -1 -5 -1 -18 1 -29 l1 -20 8 20 c5 12 4 28 -2 40 -6 11 -10 27 -9 35 3 13
2 13 -7 0 -9 -12 -11 -10 -12 10 0 14 -3 36 -5 50 -2 14 -5 31 -6 38 -1 6 -6
12 -11 12 -5 0 -6 -8 -1 -17z"/>
<path d="M3115 2464 c0 -20 7 -39 15 -44 8 -5 15 -17 15 -27 0 -10 6 -18 14
-18 8 0 17 -9 22 -20 5 -14 8 -15 9 -5 1 8 3 23 5 33 3 15 1 16 -13 5 -13 -11
-15 -11 -9 4 4 11 2 17 -5 15 -7 -1 -13 4 -14 11 -1 6 -3 15 -4 20 -1 4 -2 11
-1 15 1 5 -3 6 -9 2 -6 -3 -8 -11 -5 -16 4 -5 1 -9 -5 -9 -7 0 -9 12 -6 30 2
16 1 32 -3 34 -4 3 -7 -11 -6 -30z"/>
<path d="M3272 2269 c-8 -12 -9 -18 -4 -15 6 3 20 -10 32 -29 23 -37 34 -46
24 -20 -4 8 0 23 7 32 8 9 9 14 2 10 -6 -4 -13 -4 -16 0 -2 5 -2 2 -1 -4 4
-18 -13 -16 -19 1 -3 7 0 19 6 26 9 10 9 11 0 6 -6 -3 -13 -2 -15 4 -2 6 -9 1
-16 -11z"/>
<path d="M3421 2157 c-2 -14 30 -69 36 -63 3 3 1 12 -6 19 -6 8 -9 23 -5 33 4
14 3 16 -4 5 -8 -11 -10 -11 -15 0 -3 8 -6 10 -6 6z"/>
<path d="M3647 2063 c-4 -3 -2 -12 4 -20 6 -7 9 -22 6 -33 -3 -11 -1 -18 4
-14 12 7 11 41 -1 49 -6 4 -8 11 -5 16 7 10 1 12 -8 2z"/>
<path d="M4630 2029 c0 -5 5 -7 10 -4 6 3 10 8 10 11 0 2 -4 4 -10 4 -5 0 -10
-5 -10 -11z"/>
<path d="M4402 2025 c4 -4 4 -13 0 -19 -5 -6 -5 -24 -1 -41 l8 -30 -2 30 c-1
17 2 35 6 42 4 6 2 15 -5 19 -7 4 -10 4 -6 -1z"/>
<path d="M4321 1985 c10 -11 19 -29 22 -40 4 -15 5 -14 4 5 -1 14 3 32 7 40 7
12 6 13 -4 3 -11 -10 -17 -10 -29 0 -13 10 -13 8 0 -8z"/>
<path d="M3835 1982 c2 -3 0 -14 -6 -26 -9 -20 -9 -20 4 -3 11 14 16 15 20 5
3 -7 5 -4 4 8 -1 11 -7 21 -14 21 -7 0 -11 -2 -8 -5z"/>
<path d="M3922 1959 c-1 -16 -1 -29 2 -29 7 0 13 50 7 55 -4 2 -8 -10 -9 -26z"/>
<path d="M3995 1981 c-3 -5 -2 -12 3 -15 5 -3 9 1 9 9 0 17 -3 19 -12 6z"/>
<path d="M4185 1970 c-15 -16 -21 -18 -33 -7 -11 8 -14 8 -9 0 4 -6 3 -14 -3
-18 -5 -3 -10 -1 -10 6 0 7 -2 10 -5 7 -3 -3 -3 -13 1 -22 6 -15 7 -15 21 1
13 16 14 16 9 1 -6 -19 9 -34 18 -19 7 10 25 9 43 -2 8 -5 11 2 11 23 -1 21
-4 27 -9 18 -5 -7 -9 -9 -9 -4 0 5 -9 1 -20 -9 -27 -24 -26 -7 2 22 12 13 19
23 16 23 -3 0 -13 -9 -23 -20z m29 -28 c3 -5 -1 -9 -9 -9 -8 0 -12 4 -9 9 3 4
7 8 9 8 2 0 6 -4 9 -8z"/>
<path d="M3940 1946 c0 -8 4 -17 9 -20 5 -4 7 3 4 14 -6 23 -13 26 -13 6z"/>
<path d="M3507 2075 c-4 -8 -2 -17 3 -20 6 -4 10 3 10 14 0 25 -6 27 -13 6z"/>
<path d="M4496 2002 c-2 -4 -1 -14 4 -22 7 -11 9 -9 7 8 -1 24 -3 26 -11 14z"/>
<path d="M3986 1927 c3 -10 9 -15 12 -12 3 3 0 11 -7 18 -10 9 -11 8 -5 -6z"/>
</g>
</svg>
